<svg xmlns="http://www.w3.org/2000/svg" width="32" height="42" viewBox="0 0 25 42">
  <g stroke="none" stroke-width="1" fill="none" fill-rule="evenodd">
    <g transform="translate(0, 8)">
      <path d="M13.7918663,0.358365126 L3.39788168,7.44174259 C0.566865006,9.69408886 -0.379795268,12.4788597 0.557900856,15.7960551 C0.68998853,16.2305145 1.09562888,17.7872135 3.12357076,19.2293357 C3.8146334,19.7207684 5.32369333,20.3834223 7.65075054,21.2172976 L7.59773219,21.2525164 L2.63468769,24.5493413 C0.445452254,26.3002124 0.0884951797,28.5083815 1.56381646,31.1738486 C2.83770406,32.8170431 5.20850219,33.2640127 7.09180128,32.5391577 C8.347334,32.0559211 11.4559176,30.0011079 16.4175519,26.3747182 C18.0338572,24.4997857 18.6973423,22.4544883 18.4080071,20.2388261 C17.963753,17.5346866 16.1776345,15.5799961 13.0496516,14.3747546 L10.9194936,13.4715819 L18.6192054,7.984237 L13.7918663,0.358365126 Z" fill="#22c55e"/>
    </g>
    <g transform="translate(19, 11) rotate(-300) translate(-19, -11)">
      <path d="M20.6,7.13333333 L25.6,13.8 C26.2627417,14.6836556 26.0836556,15.9372583 25.2,16.6 C24.8538077,16.8596443 24.4327404,17 24,17 L14,17 C12.8954305,17 12,16.1045695 12,15 C12,14.5672596 12.1403557,14.1461923 12.4,13.8 L17.4,7.13333333 C18.0627417,6.24967773 19.3163444,6.07059163 20.2,6.73333333 C20.3516113,6.84704183 20.4862915,6.981722 20.6,7.13333333 Z" fill="#22c55e" fill-opacity="0.8"/>
    </g>
  </g>
</svg>
